<?xml version="1.0" encoding="UTF-8" standalone="no"?>
<svg
   fill="none"
   viewBox="0 0 24 24"
   stroke-width="1.5"
   stroke="currentColor"
   class="size-6"
   version="1.1"
   id="svg1"
   sodipodi:docname="bookmarks-marked.svg"
   inkscape:version="1.3.2 (1:1.3.2+202311252150+091e20ef0f)"
   xmlns:inkscape="http://www.inkscape.org/namespaces/inkscape"
   xmlns:sodipodi="http://sodipodi.sourceforge.net/DTD/sodipodi-0.dtd"
   xmlns="http://www.w3.org/2000/svg"
   xmlns:svg="http://www.w3.org/2000/svg">
  <defs
     id="defs1" />
  <sodipodi:namedview
     id="namedview1"
     pagecolor="#ffffff"
     bordercolor="#000000"
     borderopacity="0.25"
     inkscape:showpageshadow="2"
     inkscape:pageopacity="0.0"
     inkscape:pagecheckerboard="0"
     inkscape:deskcolor="#d1d1d1"
     inkscape:zoom="34"
     inkscape:cx="11.985294"
     inkscape:cy="12"
     inkscape:window-width="1850"
     inkscape:window-height="1016"
     inkscape:window-x="0"
     inkscape:window-y="0"
     inkscape:window-maximized="1"
     inkscape:current-layer="svg1" />
  <path
     stroke-linecap="round"
     stroke-linejoin="round"
     d="M16.5 3.75V16.5L12 14.25 7.5 16.5V3.75m9 0H18A2.25 2.25 0 0 1 20.25 6v12A2.25 2.25 0 0 1 18 20.25H6A2.25 2.25 0 0 1 3.75 18V6A2.25 2.25 0 0 1 6 3.75h1.5m9 0h-9"
     id="path1" />
  <path
     style="fill:#000000;stroke-width:0.0444211"
     d="M 8.2501738,9.9568635 V 4.5001296 H 12 15.749826 V 9.9568635 15.413597 L 13.984338,14.519211 12.218849,13.624823 H 12 11.781151 l -1.765489,0.894388 -1.7654882,0.894386 z"
     id="path2" />
</svg>
